<svg xmlns="http://www.w3.org/2000/svg" width="512" height="512" viewBox="0 0 58 36">
  <g fill-rule="nonzero" fill="none">
    <path fill="#7F8C8D" d="M42 15.826V5h4v12zM46 18v13h-4V19.271z" />
    <path d="M27.21 30H15.73c-.35-.6-1.99 3-2.73 3l-1 1-2-13 16.06 8.77a2.95 2.95 0 001.15.23z" fill="#802F34" />
    <path fill="#7F8C8D" d="M12 24.32V29l-6 2-1-11z" />
    <path d="M27.21 6a2.95 2.95 0 00-1.15.23L11 16 9 4l2-2c.74 0 4.38 4.6 4.73 4h11.48z" fill="#802F34" />
    <path fill="#7F8C8D" d="M12 7v4.68L6 15 5 3z" />
    <path d="M57 5v14a1.067 1.067 0 00-.27-.07L53 18.35V5a1 1 0 011-1h2a1 1 0 011 1z" fill="#802F34" />
    <path d="M57 17v14a1 1 0 01-1 1h-2a1 1 0 01-1-1V17.65l3.73-.58c.093-.011.183-.035.27-.07z" fill="#802F34" />
    <rect fill="#2C2F38" x="38" y="1" width="12" height="7" rx="2" />
    <rect fill="#2C2F38" x="38" y="28" width="12" height="7" rx="2" />
    <path
      d="M16 2v3a2 2 0 01-2 2H8V6a1 1 0 00-1-1H4V2a2.006 2.006 0 012-2h8a2.006 2.006 0 012 2zM16 31v3a2.006 2.006 0 01-2 2H6a2.006 2.006 0 01-2-2v-3h3a1 1 0 001-1v-1h6a2 2 0 012 2z"
      fill="#2C2F38" />
    <path
      d="M57 16.09a1.067 1.067 0 00-.27-.07L53 15.44l-7-1.1-4-.62L31 12a8.807 8.807 0 01-.8-3.28A3.009 3.009 0 0027.21 6a2.95 2.95 0 00-1.15.23L12 11.68l-4 1.55L5 18l3 4.77 4 1.55 14.06 5.45a2.95 2.95 0 001.15.23 3.009 3.009 0 002.99-2.72A8.807 8.807 0 0131 24l11-1.72 4-.62 7-1.1 3.73-.58c.093-.011.183-.035.27-.07 1.33-.53 1.33-3.29 0-3.82z"
      fill="#E64C3C" />
    <path d="M21 15v6l-8.64-2.52a.5.5 0 010-.96L21 15z" fill="#802F34" />
    <path d="M29 18a3 3 0 01-3 3h-5v-6h5a3 3 0 013 3z" fill="#2C2F38" />
    <rect fill="#FB7B76" y="5" width="8" height="26" rx="1" />
    <path d="M4 11a1 1 0 01-1-1V9a1 1 0 112 0v1a1 1 0 01-1 1zM4 20a1 1 0 01-1-1v-5a1 1 0 012 0v5a1 1 0 01-1 1z"
      fill="#E6E7E8" />
  </g>
</svg>
